PathFileType  4	(X/Y/Z) C:\Users\antoi\Documents\MyRepositories\mobilecap\ResultsAnalysis
DataRate	CameraRate	NumFrames	NumMarkers	Units	OrigDataRate	OrigDataStartFrame	OrigNumFrames
100.0	100.0	4	51	mm	100.0	103	136
Frame#	Time	r_knee			r_shank_antsup			r_ankle			r_calc			r_5meta			r_toe			L_knee			L_shank_antsup			L_ankle			L_calc			L_5meta			L_toe			r_sh2			r_sh3			r_sh4			L_sh2			L_sh3			r_thigh1			r_thigh2			r_thigh3			r_thigh4			r_thigh5			L_thigh1			L_thigh2			L_thigh3			L_thigh4			r.ASIS			r.PSIS			L.ASIS			L.PSIS			C7			R_Shoulder			L_Shoulder			R_Sternum			L_Sternum			R_humerus			R_elbow_med			R_elbow_lat			R_forearm			R_wrist_radius			R_wrist_ulna			L_humerus			L_elbow_med			L_elbow_lat			L_forearm			L_wrist_radius			L_wrist_ulna			R_HJC			L_HJC			R_HJC_reg			L_HJC_reg			
		X1	Y1	Z1	X2	Y2	Z2	X3	Y3	Z3	X4	Y4	Z4	X5	Y5	Z5	X6	Y6	Z6	X7	Y7	Z7	X8	Y8	Z8	X9	Y9	Z9	X10	Y10	Z10	X11	Y11	Z11	X12	Y12	Z12	X13	Y13	Z13	X14	Y14	Z14	X15	Y15	Z15	X16	Y16	Z16	X17	Y17	Z17	X18	Y18	Z18	X19	Y19	Z19	X20	Y20	Z20	X21	Y21	Z21	X22	Y22	Z22	X23	Y23	Z23	X24	Y24	Z24	X25	Y25	Z25	X26	Y26	Z26	X27	Y27	Z27	X28	Y28	Z28	X29	Y29	Z29	X30	Y30	Z30	X31	Y31	Z31	X32	Y32	Z32	X33	Y33	Z33	X34	Y34	Z34	X35	Y35	Z35	X36	Y36	Z36	X37	Y37	Z37	X38	Y38	Z38	X39	Y39	Z39	X40	Y40	Z40	X41	Y41	Z41	X42	Y42	Z42	X43	Y43	Z43	X44	Y44	Z44	X45	Y45	Z45	X46	Y46	Z46	X47	Y47	Z47	X48	Y48	Z48	X49	Y49	Z49	X50	Y50	Z50	X51	Y51	Z51	

103	1.02000000	1288.32865	570.12987	-154.19776	1338.37569	457.45677	-161.65963	1319.55344	114.64872	-200.03627	1274.41857	81.98447	-266.42679	1451.42246	52.94928	-133.54789	1496.45526	94.02077	-187.96695	977.60522	549.35851	-466.48908	997.46845	438.59268	-445.17088	853.86433	112.63841	-416.61359	787.47099	89.27114	-368.49763	988.69854	33.94342	-440.21716	1021.12675	54.82444	-371.11030	1366.26306	349.32273	-184.70021	1271.79688	432.02801	-130.25321	1303.31666	320.11481	-137.21670	915.65063	448.06239	-484.58837	918.58206	328.01686	-489.36740	1287.89152	820.85483	-164.40926	1335.01614	720.40219	-174.70966	1313.81891	679.65086	-124.38299	1207.90787	775.93277	-98.66938	1259.97200	671.55915	-116.99280	1111.22661	780.40954	-500.81424	1092.52645	646.70064	-483.02213	1000.75973	790.94886	-525.18782	982.18409	655.62875	-495.50101	1168.36927	1045.55309	-180.84793	961.59531	1066.07482	-259.18781	1166.32553	1042.19407	-446.95543	959.37432	1073.47877	-354.89711	1028.62682	1569.02135	-322.38745	1089.24553	1501.07003	-131.41913	1116.72426	1518.31136	-491.38463	1167.65645	1491.81954	-287.09385	1168.76909	1488.60386	-334.29675	1081.90311	1332.99557	-54.68297	999.88434	1115.84548	-97.90944	1009.19742	1141.12193	-19.67138	1095.22052	992.20752	11.21766	1121.14215	873.36740	31.36882	1084.92921	867.63520	54.35481	1170.21587	1361.69840	-564.32449	1149.13310	1134.09493	-540.04209	1193.41150	1163.05507	-602.12015	1333.18066	1086.83527	-543.31051	1420.94792	1004.49764	-543.88921	1402.74999	984.51854	-585.10981	1090.98465	960.83019	-213.73367	1089.11162	950.43682	-426.86513	1103.37559	950.37044	-224.21553	1099.31804	963.90788	-399.29011	
104	1.03000000	1292.32697	563.25890	-156.87851	1349.09043	455.94119	-162.88834	1356.33909	111.19578	-197.59098	1314.40505	74.06715	-263.68645	1492.33556	60.67077	-129.95403	1534.28009	104.48047	-184.62902	982.41213	549.63079	-466.24755	1001.11865	438.70057	-445.23204	854.34298	113.85100	-416.33246	787.99847	90.96887	-368.12684	988.76213	33.90108	-440.24091	1021.43263	54.66761	-371.20439	1384.77373	349.65753	-184.52351	1284.24514	426.20000	-131.40293	1323.80839	316.65006	-137.01421	919.13177	449.12487	-484.16523	920.61487	328.92752	-489.16417	1296.90531	812.70075	-165.14826	1340.54219	710.50147	-176.36535	1318.21573	670.26031	-126.31092	1215.42917	769.56328	-100.04945	1264.06383	664.32746	-119.09598	1119.36037	778.61230	-501.53867	1098.70378	645.25864	-483.74644	1008.97285	790.96672	-525.22004	988.34189	656.04996	-495.11081	1182.22590	1043.25913	-180.88262	975.24760	1064.32717	-258.61986	1178.93933	1039.74133	-446.75808	972.62132	1072.15271	-354.34053	1041.57955	1566.88444	-321.14168	1102.13070	1498.72355	-130.32559	1129.89652	1517.03129	-490.10970	1180.70064	1489.85978	-285.99794	1181.80187	1486.72132	-333.21978	1094.57823	1330.61871	-53.69690	1012.21115	1113.96316	-97.05366	1021.43803	1138.92669	-18.93720	1106.55881	989.62947	12.58371	1131.49850	870.46258	33.00608	1095.33520	865.20566	55.88935	1184.00101	1361.00306	-563.44641	1164.44392	1133.36063	-539.83235	1208.75776	1162.64924	-601.75131	1349.35603	1089.06816	-541.46683	1438.92076	1008.56105	-541.10041	1421.38268	988.14287	-582.45422	1104.26641	958.78220	-213.48708	1101.61429	948.35547	-426.60565	1116.93323	947.73461	-224.33069	1112.13979	962.02473	-399.18568	
105	1.04000000	1296.62485	556.52418	-159.10431	1359.56378	454.51569	-164.00216	1390.35661	109.33208	-195.27799	1351.48682	67.90840	-260.75126	1529.84387	69.73437	-127.02342	1568.47529	115.87578	-182.17672	987.85649	549.79874	-466.03165	1005.27423	438.64323	-445.29336	854.93081	115.12560	-416.05858	788.57502	92.83029	-367.76384	988.82241	33.85854	-440.25566	1021.75890	54.47159	-371.28482	1402.12307	350.27546	-184.43847	1296.52892	421.00621	-132.27509	1343.28466	314.00267	-136.68383	923.20865	450.13011	-483.76269	922.99300	329.73347	-489.01290	1305.71640	804.23921	-166.18065	1345.60413	700.25699	-178.40234	1322.70880	660.77966	-128.24374	1223.24144	763.16129	-101.01109	1268.47227	656.98713	-120.57704	1127.90586	776.76720	-502.28559	1105.37356	643.78589	-484.45707	1017.60926	790.92568	-525.23694	995.03014	656.39206	-494.70874	1196.24667	1040.67217	-181.06410	989.00190	1062.36935	-257.87674	1191.65629	1037.26760	-446.72577	986.01460	1070.55584	-353.62489	1054.61442	1564.54111	-319.75114	1115.20710	1496.19781	-129.11150	1143.11335	1515.61600	-488.73065	1193.85436	1487.72470	-284.84295	1194.92747	1484.67103	-332.08292	1107.45365	1328.03681	-52.60735	1024.81347	1111.76602	-96.20013	1033.85840	1136.51875	-18.14472	1118.16918	986.87844	13.96488	1142.14750	867.37794	34.57601	1106.09423	862.57988	57.38167	1197.67358	1360.07449	-562.52304	1179.50974	1132.38897	-539.48656	1223.75124	1162.00319	-601.33655	1365.10008	1090.98120	-539.63739	1456.34121	1012.25301	-538.32168	1439.47253	991.44082	-579.79145	1117.78940	956.45892	-213.34477	1114.18874	946.19457	-426.45311	1130.51220	945.04600	-224.55854	1125.06412	959.97686	-399.21589	
106	1.05000000	1302.12695	550.40086	-160.76682	1370.30780	453.09144	-164.96476	1420.51003	108.46394	-193.32939	1384.31223	63.10184	-257.86612	1562.89295	78.90796	-125.01634	1598.18382	126.89659	-180.84964	994.03224	549.81498	-465.87975	1010.02531	438.37470	-445.37113	855.64844	116.48016	-415.84034	789.22078	94.86481	-367.46771	988.88484	33.81549	-440.26331	1022.07373	54.22303	-371.34214	1418.38567	350.78626	-184.51704	1308.98760	416.58809	-132.80153	1361.64344	311.96708	-136.29042	928.00480	451.03125	-483.43710	925.84448	330.41822	-488.95264	1314.53719	796.17340	-167.59985	1350.88147	690.57011	-180.83015	1328.22204	652.03356	-130.12005	1231.87386	757.17417	-101.43841	1274.00375	650.03581	-121.37227	1136.96999	774.86012	-502.99789	1112.64487	642.24834	-485.15289	1026.77463	790.79322	-525.21037	1002.35639	656.58612	-494.34548	1210.29926	1037.74030	-181.36461	1002.75455	1060.23690	-256.95489	1204.48444	1034.79033	-446.87681	999.51143	1068.69059	-352.73953	1067.75093	1562.02006	-318.21411	1128.50202	1493.46815	-127.79464	1156.32851	1514.04179	-487.26183	1207.12352	1485.41311	-283.62922	1208.16314	1482.46382	-330.88250	1120.54390	1325.23408	-51.42778	1037.69129	1109.22093	-95.33360	1046.46310	1133.89160	-17.27177	1130.04527	983.94321	15.36124	1153.17588	864.15655	36.08654	1117.21386	859.74556	58.83650	1211.23697	1358.92825	-561.55164	1194.31348	1131.15137	-539.03906	1238.39432	1161.12353	-600.87869	1380.41168	1092.55641	-537.82667	1473.18730	1015.53924	-535.56355	1457.01647	994.39020	-577.13426	1131.44158	953.83516	-213.31513	1126.78069	943.97763	-426.41818	1143.94029	942.34276	-224.88538	1138.02901	957.74589	-399.40483	
